<?xml version="1.0" encoding="UTF-8"?>
<svg width="36px" height="36px" viewBox="0 0 36 36" version="1.1" xmlns="http://www.w3.org/2000/svg" xmlns:xlink="http://www.w3.org/1999/xlink">
    <title>下</title>
    <g id="Page-1" stroke="none" stroke-width="1" fill="none" fill-rule="evenodd">
        <g id="全部目录" transform="translate(-690.000000, -1254.000000)">
            <g id="反馈:60/底部面板BottomSheet:2/自定义底部面板" transform="translate(0.000000, 334.000000)">
                <g id="列表List单行不带图-Copy-6" transform="translate(0.000000, 890.000000)">
                    <g id="下" transform="translate(690.000000, 30.000000)">
                        <rect id="Rectangle" x="0" y="0" width="36" height="36"></rect>
                        <path d="M10.0993477,6.10994188 L23.4173593,18.077741 C23.8457035,18.4627023 23.8809301,19.1219883 23.4960039,19.5503677 L23.4960039,19.5503677 C23.4712051,19.5779503 23.4449531,19.6041906 23.4173593,19.6289772 L10.0993477,31.5968114 C9.56497206,32.076976 9.52106185,32.8994223 10.0012616,33.4337627 C10.4814263,33.9681384 11.3038725,34.0120134 11.838213,33.5318488 L25.1562246,21.5640497 L25.1562247,21.5640496 C25.2526534,21.4773978 25.3443896,21.3856617 25.4310414,21.2892329 C26.776332,19.7921726 26.653285,17.4879941 25.1562247,16.1427035 L11.8382131,4.17490441 C11.3038374,3.69470464 10.4814263,3.73861484 10.0012617,4.27299047 C9.52106193,4.80733093 9.56497214,5.6297772 10.0993478,6.10994182 L10.0993477,6.10994188 Z" id="路径" fill="#CCCCCC" fill-rule="nonzero" transform="translate(18.016354, 18.853370) rotate(-270.000000) translate(-18.016354, -18.853370) "></path>
                    </g>
                </g>
            </g>
        </g>
    </g>
</svg>