<?xml version="1.0" encoding="UTF-8"?>
<svg width="36px" height="36px" viewBox="0 0 36 36" version="1.1" xmlns="http://www.w3.org/2000/svg" xmlns:xlink="http://www.w3.org/1999/xlink">
    <title>锁</title>
    <g id="Page-1" stroke="none" stroke-width="1" fill="none" fill-rule="evenodd">
        <g id="资料详情" transform="translate(-690.000000, -1396.000000)" fill-rule="nonzero">
            <g id="列表List单行不带图-Copy-4" transform="translate(0.000000, 1369.000000)">
                <g id="锁" transform="translate(690.000000, 27.000000)">
                    <rect id="Rectangle" fill="#000000" opacity="0" x="0" y="0" width="36" height="36"></rect>
                    <path d="M4.89023437,33.7921875 C4.21171875,33.7921875 3.65976562,33.2402344 3.65976562,32.5617188 L3.65976562,11.9707031 C3.65976562,11.2921875 4.21171875,10.7402344 4.89023437,10.7402344 L9.41835937,10.7402344 L9.42890625,10.575 C9.57304688,8.51484375 10.4589844,6.57421875 11.9214844,5.11171875 C13.5492187,3.49101563 15.7078125,2.59804688 18,2.59804688 C20.2957031,2.59804688 22.4542969,3.49101563 24.0785156,5.11171875 C25.5410156,6.57421875 26.4269531,8.51484375 26.5710938,10.575 L26.5816406,10.7402344 L31.1097656,10.7402344 C31.7882812,10.7402344 32.3402344,11.2921875 32.3402344,11.9707031 L32.3402344,32.5617188 C32.3402344,33.2402344 31.7882812,33.7921875 31.1097656,33.7921875 L4.89023437,33.7921875 Z M6.12070312,31.33125 L29.8792969,31.33125 L29.8792969,13.2011719 L6.12070312,13.2011719 L6.12070312,31.33125 Z M18,5.05546875 C16.4777344,5.05546875 15.0152344,5.62148438 13.8867188,6.64453125 C12.7652344,7.6640625 12.0585938,9.04921875 11.9039063,10.5433594 L11.8828125,10.7367188 L24.1171875,10.7367188 L24.0960938,10.5433594 C23.9414062,9.04570313 23.2382812,7.66054688 22.1132812,6.64453125 C20.9847656,5.61796875 19.5222656,5.05546875 18,5.05546875 Z M18,27.5871094 C17.3214844,27.5871094 16.7695312,27.0351563 16.7695312,26.3566406 L16.7695312,19.2550781 C16.7695312,18.5765625 17.3214844,18.0246094 18,18.0246094 C18.6785156,18.0246094 19.2304688,18.5765625 19.2304688,19.2550781 L19.2304688,26.3566406 C19.2304688,27.0316406 18.6785156,27.5871094 18,27.5871094 Z" id="Shape" fill="#CCCCCC"></path>
                </g>
            </g>
        </g>
    </g>
</svg>