<?xml version="1.0" encoding="UTF-8"?>
<svg width="36px" height="36px" viewBox="0 0 36 36" version="1.1" xmlns="http://www.w3.org/2000/svg" xmlns:xlink="http://www.w3.org/1999/xlink">
    <title>下载</title>
    <g id="Page-1" stroke="none" stroke-width="1" fill="none" fill-rule="evenodd">
        <g id="试卷预览-查看更多" transform="translate(-85.000000, -1271.000000)" fill-rule="nonzero">
            <g id="评论工具条" transform="translate(0.000000, 1244.000000)">
                <g id="icon" transform="translate(85.000000, 24.000000)">
                    <g id="下载" transform="translate(0.000000, 3.000000)">
                        <rect id="Rectangle" fill="#000000" opacity="0" x="0" y="0" width="36" height="36"></rect>
                        <path d="M34.59375,21.0234375 C35.3704004,21.0234375 36,21.6530371 36,22.4296875 L36,32.484375 C36,34.4260011 34.4260011,36 32.484375,36 L3.515625,36 C1.57399893,36 0,34.4260011 0,32.484375 L0,22.4296875 C0,21.6530371 0.629599571,21.0234375 1.40625,21.0234375 C2.18290043,21.0234375 2.8125,21.6530371 2.8125,22.4296875 L2.8125,32.484375 C2.8125,32.8727002 3.12729979,33.1875 3.515625,33.1875 L32.484375,33.1875 C32.8727002,33.1875 33.1875,32.8727002 33.1875,32.484375 L33.1875,22.4296875 C33.1875,21.6530371 33.8170996,21.0234375 34.59375,21.0234375 Z M18,-3.77475828e-15 C18.7766504,-3.77475828e-15 19.40625,0.629599571 19.40625,1.40625 L19.406,22.891 L26.578125,15.75 C27.1314884,15.1966366 28.0286678,15.1966366 28.5820312,15.75 C29.1353947,16.3033634 29.1353947,17.2005428 28.5820312,17.7539062 L18.984375,27.28125 C18.7247384,27.5462076 18.3709255,27.6978417 18,27.703125 C17.6290745,27.6978417 17.2752616,27.5462076 17.015625,27.28125 L7.453125,17.71875 C7.09516163,17.3607866 6.95536101,16.8390436 7.0863847,16.3500566 C7.21740839,15.8610695 7.59935076,15.4791271 8.08833783,15.3481035 C8.57732489,15.2170798 9.09906788,15.3568804 9.45703125,15.7148437 L16.593,22.88 L16.59375,1.40625 C16.59375,0.629599571 17.2233496,-3.77475828e-15 18,-3.77475828e-15 Z" id="Combined-Shape" fill="#333333"></path>
                    </g>
                </g>
            </g>
        </g>
    </g>
</svg>

