<?xml version="1.0" encoding="UTF-8"?>
<svg width="32px" height="32px" viewBox="0 0 32 32" version="1.1" xmlns="http://www.w3.org/2000/svg" xmlns:xlink="http://www.w3.org/1999/xlink">
    <title>列表@2x</title>
    <g id="营销app" stroke="none" stroke-width="1" fill="none" fill-rule="evenodd">
        <g id="搜索" transform="translate(-545.000000, -287.000000)">
            <g id="Group-5" transform="translate(0.000000, 260.000000)">
                <g id="列表" transform="translate(545.000000, 27.000000)">
                    <rect id="Rectangle" fill="#D8D8D8" opacity="0" x="0" y="0" width="32" height="32"></rect>
                    <path d="M13.0909091,17.0909091 C14.054897,17.0909091 14.8436645,17.841117 14.9052235,18.789545 L14.9090909,18.9090909 L14.9090909,27.6363636 C14.9090909,28.6003516 14.158883,29.389119 13.210455,29.4506781 L13.0909091,29.4545455 L4.36363636,29.4545455 C3.39964844,29.4545455 2.61088097,28.7043375 2.54932195,27.7559096 L2.54545455,27.6363636 L2.54545455,18.9090909 C2.54545455,17.945103 3.2956625,17.1563355 4.24409041,17.0947765 L4.36363636,17.0909091 L13.0909091,17.0909091 Z M12.7272727,19.2727273 L4.72727273,19.2727273 L4.72727273,27.2727273 L12.7272727,27.2727273 L12.7272727,19.2727273 Z M28.7448963,24.7272727 C29.3473888,24.7272727 29.8358054,25.2156894 29.8358054,25.8181818 C29.8358054,26.3852335 29.4031595,26.8512354 28.8499581,26.904097 L28.7448963,26.9090909 L18.5630781,26.9090909 C17.9605857,26.9090909 17.472169,26.4206743 17.472169,25.8181818 C17.472169,25.2511301 17.9048149,24.7851282 18.4580163,24.7322666 L18.5630781,24.7272727 L28.7448963,24.7272727 Z M28.7448963,18.9090909 C29.3473888,18.9090909 29.8358054,19.3975075 29.8358054,20 C29.8358054,20.5670517 29.4031595,21.0330536 28.8499581,21.0859152 L28.7448963,21.0909091 L18.5630781,21.0909091 C17.9605857,21.0909091 17.472169,20.6024925 17.472169,20 C17.472169,19.4329483 17.9048149,18.9669464 18.4580163,18.9140848 L18.5630781,18.9090909 L28.7448963,18.9090909 Z M13.0909091,2.54545455 C14.054897,2.54545455 14.8436645,3.2956625 14.9052235,4.24409041 L14.9090909,4.36363636 L14.9090909,13.0909091 C14.9090909,14.054897 14.158883,14.8436645 13.210455,14.9052235 L13.0909091,14.9090909 L4.36363636,14.9090909 C3.39964844,14.9090909 2.61088097,14.158883 2.54932195,13.210455 L2.54545455,13.0909091 L2.54545455,4.36363636 C2.54545455,3.39964844 3.2956625,2.61088097 4.24409041,2.54932195 L4.36363636,2.54545455 L13.0909091,2.54545455 Z M12.7272727,4.72727273 L4.72727273,4.72727273 L4.72727273,12.7272727 L12.7272727,12.7272727 L12.7272727,4.72727273 Z M28.7448963,10.1818182 C29.3473888,10.1818182 29.8358054,10.6702348 29.8358054,11.2727273 C29.8358054,11.839779 29.4031595,12.3057809 28.8499581,12.3586425 L28.7448963,12.3636364 L18.5630781,12.3636364 C17.9605857,12.3636364 17.472169,11.8752197 17.472169,11.2727273 C17.472169,10.7056756 17.9048149,10.2396737 18.4580163,10.1868121 L18.5630781,10.1818182 L28.7448963,10.1818182 Z M28.7448963,4.36363636 C29.3473888,4.36363636 29.8358054,4.852053 29.8358054,5.45454545 C29.8358054,6.02159718 29.4031595,6.48759904 28.8499581,6.54046067 L28.7448963,6.54545455 L18.5630781,6.54545455 C17.9605857,6.54545455 17.472169,6.05703791 17.472169,5.45454545 C17.472169,4.88749373 17.9048149,4.42149187 18.4580163,4.36863024 L18.5630781,4.36363636 L28.7448963,4.36363636 Z" id="Shape" fill="#999999" fill-rule="nonzero"></path>
                </g>
            </g>
        </g>
    </g>
</svg>