<?xml version="1.0" encoding="UTF-8"?>
<svg width="32px" height="32px" viewBox="0 0 32 32" version="1.1" xmlns="http://www.w3.org/2000/svg" xmlns:xlink="http://www.w3.org/1999/xlink">
    <title>筛选@2x</title>
    <g id="营销app" stroke="none" stroke-width="1" fill="none" fill-rule="evenodd">
        <g id="搜索-地区" transform="translate(-694.000000, -287.000000)" fill-rule="nonzero">
            <g id="Group-5" transform="translate(0.000000, 260.000000)">
                <g id="筛选" transform="translate(694.000000, 27.000000)">
                    <rect id="Rectangle" fill="#000000" opacity="0" x="0" y="0" width="32" height="32"></rect>
                    <path d="M28.0344062,4.69334375 C28.6305863,4.69334375 29.1944468,4.96432833 29.5669062,5.42984375 C30.2440937,6.27621875 30.1069687,7.5113125 29.2605937,8.1885 L20.4226562,15.2598125 L20.4226562,28.3120938 C20.4226557,28.6032848 20.3578608,28.8908271 20.2329687,29.153875 L20.2221562,29.1763438 C19.7448437,30.1495625 18.5689687,30.5515625 17.59575,30.07425 L12.793125,27.71875 C12.0623426,27.3603342 11.5991885,26.617319 11.5991875,25.803375 L11.5991875,15.2625938 L2.69890625,8.1928125 C2.23542399,7.82463715 1.96281526,7.26698454 1.95696875,6.67509375 L1.95696875,6.656 C1.95696875,5.5720625 2.83571875,4.69334375 3.91965625,4.69334375 L28.0344062,4.69334375 Z M26.33175,7.2533125 L5.63196875,7.2533125 L13.22375,13.2836562 C13.8085429,13.7481867 14.1522702,14.4519716 14.1590937,15.1987812 L14.1591875,15.2214062 L14.1591875,25.5374687 L17.8626875,27.3538437 L17.8626875,15.2188125 C17.8626914,14.4750063 18.1972548,13.7706502 18.7737812,13.3006875 L18.7913125,13.2865312 L26.33175,7.2533125 L26.33175,7.2533125 Z" id="Shape" fill="#999999"></path>
                </g>
            </g>
        </g>
    </g>
</svg>