<?xml version="1.0" encoding="UTF-8"?>
<svg width="80px" height="80px" viewBox="0 0 80 80" version="1.1" xmlns="http://www.w3.org/2000/svg" xmlns:xlink="http://www.w3.org/1999/xlink">
    <title>关闭</title>
    <g id="Page-1" stroke="none" stroke-width="1" fill="none" fill-rule="evenodd">
        <g id="拍照搜题" transform="translate(-32.000000, -44.000000)">
            <g id="关闭" transform="translate(32.000000, 44.000000)">
                <circle id="Oval" fill="#000000" opacity="0.400000006" cx="40" cy="40" r="40"></circle>
                <rect id="Rectangle" x="18" y="18" width="44" height="44"></rect>
                <path d="M54.3748422,25.5283118 C54.9509679,26.1044374 55.2991871,26.9565947 54.7908662,27.5722946 L54.4390806,27.8091387 L42.4472222,39.7998889 L54.7225887,52.0994872 C55.3347223,52.7115778 55.5487928,53.7399501 54.8922725,54.3964704 C54.2743812,55.0143617 53.3270481,55.0825962 52.707438,54.5782284 L52.5952894,54.476908 L48.7114685,50.593087 L40.1946667,42.0524444 L27.8406629,54.4075993 C27.2285724,55.0196469 26.1076883,54.8911702 25.4956407,54.2790796 C24.919515,53.7029969 24.8213743,52.7257575 25.3296952,52.1101005 L25.4313164,51.9983387 L37.8492222,39.7021111 L37.5318796,39.3839604 C37.4098658,39.2619466 37.3036666,39.1233856 37.2170267,38.9745229 L25.9970866,27.7531503 C25.4209609,27.1770676 25.2976834,26.2285313 25.8060043,25.6127884 L25.9076255,25.5010696 C26.4837512,24.9249009 27.428807,24.8589438 28.0444639,25.3672217 L28.1562688,25.4689289 L40.0585404,37.3708998 L52.029777,25.3998351 C52.6418676,24.7877445 53.7627087,24.9162642 54.3748422,25.5283118 Z" id="Path" fill="#FFFFFF" fill-rule="nonzero"></path>
            </g>
        </g>
    </g>
</svg>