<?xml version="1.0" encoding="UTF-8"?>
<svg width="88px" height="88px" viewBox="0 0 88 88" version="1.1" xmlns="http://www.w3.org/2000/svg" xmlns:xlink="http://www.w3.org/1999/xlink">
    <title>手电筒-打开</title>
    <g id="Page-1" stroke="none" stroke-width="1" fill="none" fill-rule="evenodd">
        <g id="拍照搜题" transform="translate(-578.000000, -1078.000000)">
            <g id="手电筒-打开" transform="translate(578.000000, 1078.000000)">
                <circle id="Oval" fill="#FFFFFF" opacity="0.100000001" cx="44" cy="44" r="44"></circle>
                <g id="手电筒" transform="translate(22.000000, 22.000000)" fill-rule="nonzero">
                    <rect id="Rectangle" fill="#000000" opacity="0" x="0" y="0" width="44" height="44"></rect>
                    <path d="M10.0890625,2.5953125 L10.0890625,12.4050781 C10.0890625,15.19375 11.996875,17.5441406 14.5878906,18.2574219 L14.5878906,36.6652344 C14.5878906,39.1015625 16.5859375,41.0824219 19.0480469,41.0824219 L24.9519531,41.0824219 C27.4097656,41.0824219 29.4121094,39.1015625 29.4121094,36.6652344 L29.4121094,18.2574219 C32.003125,17.5484375 33.9109375,15.1980469 33.9109375,12.4050781 L33.9109375,2.5953125 L10.0890625,2.5953125 Z M31.0964844,5.38398437 L31.0964844,7.76875 L12.9035156,7.76875 L12.9035156,5.38398437 L31.0964844,5.38398437 Z M26.5976562,33.3351562 L17.4023438,33.3351562 L17.4023438,18.4808594 L26.5976562,18.4808594 L26.5976562,33.3351562 Z M24.9519531,38.29375 L19.0480469,38.29375 C18.1414062,38.29375 17.4023438,37.5632812 17.4023438,36.6652344 L17.4023438,36.1238281 L26.5976562,36.1238281 L26.5976562,36.6652344 C26.5976562,37.5632812 25.8585937,38.29375 24.9519531,38.29375 Z M27.7792969,15.6921875 L16.2207031,15.6921875 C14.3902344,15.6921875 12.9035156,14.2183594 12.9035156,12.4050781 L12.9035156,10.5574219 L31.0964844,10.5574219 L31.0964844,12.4050781 C31.0964844,14.2183594 29.6097656,15.6921875 27.7792969,15.6921875 Z" id="Shape" fill="#FBC37E"></path>
                    <path d="M20.2425781,22.89375 C20.2425781,23.9687636 21.121744,24.8402344 22.20625,24.8402344 C23.290756,24.8402344 24.1699219,23.9687636 24.1699219,22.89375 C24.1699219,21.8187364 23.290756,20.9472656 22.20625,20.9472656 C21.121744,20.9472656 20.2425781,21.8187364 20.2425781,22.89375 Z" id="Path" fill="#FBC37E"></path>
                </g>
            </g>
        </g>
    </g>
</svg>