<?xml version="1.0" encoding="UTF-8"?>
<svg width="88px" height="88px" viewBox="0 0 88 88" version="1.1" xmlns="http://www.w3.org/2000/svg" xmlns:xlink="http://www.w3.org/1999/xlink">
    <title>图片</title>
    <g id="Page-1" stroke="none" stroke-width="1" fill="none" fill-rule="evenodd">
        <g id="拍照搜题" transform="translate(-111.000000, -1078.000000)">
            <g id="图片" transform="translate(111.000000, 1078.000000)">
                <circle id="Oval" fill="#FFFFFF" opacity="0.100000001" cx="44" cy="44" r="44"></circle>
                <g id="照片" transform="translate(22.000000, 22.000000)" fill-rule="nonzero">
                    <rect id="Rectangle" fill="#000000" opacity="0" x="0" y="0" width="44" height="44"></rect>
                    <path d="M38.5,3.85 L5.5,3.85 C3.124,3.85 1.21,5.764 1.21,8.14 L1.21,35.86 C1.21,38.236 3.124,40.15 5.5,40.15 L38.5,40.15 C40.876,40.15 42.79,38.236 42.79,35.86 L42.79,8.14 C42.79,5.764 40.876,3.85 38.5,3.85 Z M5.5,7.15 L38.5,7.15 C39.05,7.15 39.49,7.59 39.49,8.14 L39.49,27.896 L30.382,18.788 C29.898,18.304 29.26,18.04 28.6,18.04 C27.94,18.04 27.28,18.304 26.818,18.788 L15.62,29.986 L11.462,25.828 C10.472,24.838 8.866,24.838 7.876,25.828 L4.488,29.216 L4.488,8.14 C4.51,7.59 4.95,7.15 5.5,7.15 Z M38.5,36.85 L5.5,36.85 C4.95,36.85 4.51,36.41 4.51,35.86 L4.51,33.902 L9.68,28.732 L14.454,33.506 C14.762,33.814 15.18,33.99 15.62,33.99 C16.06,33.99 16.478,33.814 16.786,33.506 L28.6,21.692 L39.49,32.582 L39.49,35.86 C39.49,36.41 39.05,36.85 38.5,36.85 L38.5,36.85 Z" id="Shape" fill="#FFFFFF"></path>
                    <path d="M9.68,16.61 C9.68,17.5924804 10.204147,18.5003297 11.055,18.9915699 C11.905853,19.4828101 12.954147,19.4828101 13.805,18.9915699 C14.655853,18.5003297 15.18,17.5924804 15.18,16.61 C15.18,15.0912169 13.9487831,13.86 12.43,13.86 C10.9112169,13.86 9.68,15.0912169 9.68,16.61 L9.68,16.61 Z" id="Path" fill="#FFFFFF"></path>
                </g>
            </g>
        </g>
    </g>
</svg>