<?xml version="1.0" encoding="UTF-8"?>
<svg width="128px" height="128px" viewBox="0 0 128 128" version="1.1" xmlns="http://www.w3.org/2000/svg" xmlns:xlink="http://www.w3.org/1999/xlink">
    <title>选中</title>
    <g id="Page-1" stroke="none" stroke-width="1" fill="none" fill-rule="evenodd">
        <g id="拍照搜题-1" transform="translate(-311.000000, -1058.000000)">
            <g id="选中" transform="translate(311.000000, 1058.000000)">
                <circle id="Oval" fill="#2D8CF0" cx="64" cy="64" r="64"></circle>
                <g id="Group" transform="translate(32.000000, 32.000000)">
                    <rect id="Rectangle" x="0" y="0" width="64" height="64"></rect>
                    <g id="Selected" transform="translate(6.818182, 13.090909)" fill="#FFFFFF" fill-rule="nonzero">
                        <path d="M50.8381353,1.46706409 L50.7943852,1.42331404 C49.2568834,-0.0891877236 46.7881306,-0.0704377018 45.2756288,1.46706409 L19.631849,27.5233444 L19.6068489,27.5483444 C18.6630978,28.4733455 17.1505961,28.4608455 16.225595,27.5233444 L6.96308422,18.1170835 L6.91933417,18.0733334 C5.38183238,16.5608317 2.91307951,16.5795817 1.40057775,18.1170835 C-0.143174051,19.6858353 -0.143174051,22.1983382 1.40057775,23.76709 L14.513093,37.0671055 L14.5630931,37.1171056 C16.4443453,38.9733577 19.4755988,38.9483577 21.3318509,37.0671055 L50.8381353,7.12332067 C52.3818871,5.54831884 52.3818871,3.03581591 50.8381353,1.46706409 Z" id="Path"></path>
                    </g>
                </g>
            </g>
        </g>
    </g>
</svg>