<?xml version="1.0" encoding="UTF-8"?>
<svg width="128px" height="128px" viewBox="0 0 128 128" version="1.1" xmlns="http://www.w3.org/2000/svg" xmlns:xlink="http://www.w3.org/1999/xlink">
    <title>拍照</title>
    <g id="Page-1" stroke="none" stroke-width="1" fill="none" fill-rule="evenodd">
        <g id="拍照搜题" transform="translate(-311.000000, -1058.000000)" fill="#FFFFFF">
            <path d="M375,1058 C410.346224,1058 439,1086.65378 439,1122 C439,1157.34622 410.346224,1186 375,1186 C339.653776,1186 311,1157.34622 311,1122 C311,1086.65378 339.653776,1058 375,1058 Z M375,1068 C345.176624,1068 321,1092.17662 321,1122 C321,1151.82338 345.176624,1176 375,1176 C404.823376,1176 429,1151.82338 429,1122 C429,1092.17662 404.823376,1068 375,1068 Z M375,1073 C402.061953,1073 424,1094.93805 424,1122 C424,1149.06195 402.061953,1171 375,1171 C347.938047,1171 326,1149.06195 326,1122 C326,1094.93805 347.938047,1073 375,1073 Z" id="拍照"></path>
        </g>
    </g>
</svg>