<?xml version="1.0" encoding="UTF-8"?>
<svg width="24px" height="24px" viewBox="0 0 24 24" version="1.1" xmlns="http://www.w3.org/2000/svg" xmlns:xlink="http://www.w3.org/1999/xlink">
    <title>1</title>
    <g id="电商店铺移动端-gui" stroke="none" stroke-width="1" fill="none" fill-rule="evenodd">
        <g id="搜索-结果-列表" transform="translate(-444.000000, -249.000000)">
            <g id="Group-5" transform="translate(0.000000, 220.000000)">
                <g id="Group-3-Copy" transform="translate(336.000000, 19.000000)">
                    <g id="1" transform="translate(108.000000, 10.000000)">
                        <rect id="Rectangle" x="0" y="0" width="24" height="24"></rect>
                        <g id="Group-9" transform="translate(6.000000, 2.000000)" fill-rule="nonzero">
                            <path d="M5.58510551,0.292893219 C5.94558947,-0.0675907428 6.51282053,-0.0953202783 6.90511173,0.209704612 L6.99931907,0.292893219 L12.0925318,5.38610598 C12.4830561,5.77663027 12.4830561,6.40979525 12.0925318,6.80031954 C11.7320479,7.1608035 11.1648168,7.18853304 10.7725256,6.88350815 L10.6783183,6.80031954 L6.292,2.414 L1.90610631,6.80031954 C1.54562235,7.1608035 0.978391295,7.18853304 0.586100088,6.88350815 L0.49189275,6.80031954 C0.131408788,6.43983558 0.103679253,5.87260452 0.408704143,5.48031331 L0.49189275,5.38610598 L5.58510551,0.292893219 Z" id="Path-3" fill="#CCCCCC"></path>
                            <path d="M5.38610598,13.7338387 C5.74658994,13.3733547 6.31382099,13.3456252 6.7061122,13.6506501 L6.80031954,13.7338387 L11.8935323,18.8270514 C12.2840566,19.2175757 12.2840566,19.8507407 11.8935323,20.241265 C11.5330483,20.601749 10.9658173,20.6294785 10.5735261,20.3244536 L10.4793187,20.241265 L6.093,15.855 L1.70710678,20.241265 C1.34662282,20.601749 0.779391764,20.6294785 0.387100557,20.3244536 L0.292893219,20.241265 C-0.0675907428,19.880781 -0.0953202783,19.31355 0.209704612,18.9212588 L0.292893219,18.8270514 L5.38610598,13.7338387 Z" id="Path-3-Copy" fill="#333333" transform="translate(6.093213, 16.987552) scale(1, -1) translate(-6.093213, -16.987552) "></path>
                        </g>
                    </g>
                </g>
            </g>
        </g>
    </g>
</svg>