<?xml version="1.0" encoding="UTF-8"?>
<svg width="44px" height="44px" viewBox="0 0 44 44" version="1.1" xmlns="http://www.w3.org/2000/svg" xmlns:xlink="http://www.w3.org/1999/xlink">
    <title>查看原题</title>
    <g id="Page-1" stroke="none" stroke-width="1" fill="none" fill-rule="evenodd">
        <g id="搜题结果" transform="translate(-42.000000, -2887.000000)">
            <g id="信息输入:50/按钮Button:2/吸底组合/状态:#默认状态" transform="translate(0.000000, 2851.000000)">
                <g id="Group-22" transform="translate(24.000000, 36.000000)">
                    <g id="查看原题" transform="translate(18.000000, 0.000000)">
                        <rect id="Rectangle" fill="#D8D8D8" opacity="0" x="0" y="0" width="44" height="44"></rect>
                        <path d="M37,3 C38.6568542,3 40,4.34314575 40,6 L40,38 C40,39.6568542 38.6568542,41 37,41 L7,41 C5.34314575,41 4,39.6568542 4,38 L4,6 C4,4.34314575 5.34314575,3 7,3 L37,3 Z M37,6 L7,6 L7,38 L37,38 L37,6 Z" id="Rectangle" fill="#333333" fill-rule="nonzero"></path>
                        <path d="M24.5878164,10.9747798 C25.4162435,10.9747798 26.0878164,11.6463527 26.0878164,12.4747798 C26.0878164,13.2544759 25.4929283,13.8952285 24.7322764,13.9679132 L24.5878164,13.9747798 L12.8778759,13.9747798 C12.0494488,13.9747798 11.3778759,13.3032069 11.3778759,12.4747798 C11.3778759,11.6950837 11.972764,11.0543311 12.7334159,10.9816464 L12.8778759,10.9747798 L24.5878164,10.9747798 Z" id="Path-2" fill="#333333" fill-rule="nonzero"></path>
                        <path d="M12.8799074,19.0000014 L31.5020315,19.0252216 C32.3304578,19.0263435 33.0011206,19.6988253 33,20.5272517 C32.9989427,21.3069471 32.4031874,21.9468934 31.6424377,22.0185479 L31.4979685,22.0252188 L12.8758444,22.0000014 C12.0474181,21.9988767 11.3767553,21.3263949 11.3778759,20.4979685 C11.3789332,19.7182731 11.9746885,19.0783268 12.7354382,19.0066723 L12.8799074,19.0000014 Z" id="Path-2-Copy" fill="#333333" fill-rule="nonzero"></path>
                        <path d="M12.8799074,28.0000014 L31.5020315,28.0252216 C32.3304578,28.0263435 33.0011206,28.6988253 33,29.5272517 C32.9989427,30.3069471 32.4031874,30.9468934 31.6424377,31.0185479 L31.4979685,31.0252188 L12.8758444,31.0000014 C12.0474181,30.9988767 11.3767553,30.3263949 11.3778759,29.4979685 C11.3789332,28.7182731 11.9746885,28.0783268 12.7354382,28.0066723 L12.8799074,28.0000014 Z" id="Path-2-Copy-2" fill="#333333" fill-rule="nonzero"></path>
                    </g>
                </g>
            </g>
        </g>
    </g>
</svg>